<?xml version="1.0" encoding="UTF-8"?>
<svg xmlns="http://www.w3.org/2000/svg" width="700" height="380" viewBox="0 0 700 380">
  <defs>
    <filter id="windowShadow">
      <feDropShadow dx="2" dy="2" stdDeviation="4" flood-opacity="0.15" />
    </filter>
    <style>text { font-family: 'Segoe UI', 'Meiryo', sans-serif; }</style>
  </defs>
  <rect width="700" height="380" fill="#FFFFFF" />
  <rect x="40" y="40" width="500" height="300" fill="#F0F0F0" stroke="#999999" stroke-width="1" rx="4" filter="url(#windowShadow)" />
  <rect x="40" y="40" width="500" height="30" fill="#0078D4" stroke="none" stroke-width="0" rx="4" />
  <rect x="40" y="64" width="500" height="6" fill="#0078D4" stroke="none" stroke-width="1" />
  <text x="50" y="55" font-size="12" fill="#FFFFFF" text-anchor="start" font-weight="normal" dominant-baseline="central">ユーザー登録 手順</text>
  <line x1="518" y1="51" x2="526" y2="59" stroke="#FFFFFF" stroke-width="1" />
  <line x1="518" y1="59" x2="526" y2="51" stroke="#FFFFFF" stroke-width="1" />
  <rect x="493" y="51" width="8" height="8" fill="none" stroke="#FFFFFF" stroke-width="1" />
  <line x1="468" y1="55" x2="476" y2="55" stroke="#FFFFFF" stroke-width="1" />
  <text x="60" y="100" font-size="12" fill="#1E1E1E" text-anchor="start" font-weight="normal" dominant-baseline="central">名前:</text>
  <rect x="120" y="85" width="200" height="24" fill="#FFFFFF" stroke="#7A7A7A" stroke-width="1" rx="2" />
  <text x="124" y="97" font-size="12" fill="#A0A0A0" text-anchor="start" font-weight="normal" dominant-baseline="central" font-style="italic">氏名を入力</text>
  <text x="60" y="140" font-size="12" fill="#1E1E1E" text-anchor="start" font-weight="normal" dominant-baseline="central">メール:</text>
  <rect x="120" y="125" width="200" height="24" fill="#FFFFFF" stroke="#7A7A7A" stroke-width="1" rx="2" />
  <text x="124" y="137" font-size="12" fill="#A0A0A0" text-anchor="start" font-weight="normal" dominant-baseline="central" font-style="italic">email@example.com</text>
  <rect x="120" y="170" width="80" height="26" fill="#E1E1E1" stroke="#ADADAD" stroke-width="1" rx="3" />
  <text x="160" y="183" font-size="12" fill="#1E1E1E" text-anchor="middle" font-weight="normal" dominant-baseline="central">登録</text>
  <rect x="210" y="170" width="80" height="26" fill="#E1E1E1" stroke="#ADADAD" stroke-width="1" rx="3" />
  <text x="250" y="183" font-size="12" fill="#1E1E1E" text-anchor="middle" font-weight="normal" dominant-baseline="central">キャンセル</text>
  <line x1="220" y1="109" x2="220" y2="125" stroke="#1976D2" stroke-width="1" />
  <circle cx="220" cy="109" r="3" fill="#1976D2" />
  <polygon points="220,125 217,117 223,117" fill="#1976D2" />
  <circle cx="220" cy="117" r="14" fill="#1976D2" />
  <text x="220" y="117" font-size="13" fill="#FFFFFF" text-anchor="middle" font-weight="bold" dominant-baseline="central">①</text>
  <line x1="205" y1="149" x2="176" y2="171" stroke="#4CAF50" stroke-width="1" />
  <circle cx="205" cy="149" r="3" fill="#4CAF50" />
  <polygon points="176,171 181,165 183,169" fill="#4CAF50" />
  <circle cx="190" cy="160" r="14" fill="#4CAF50" />
  <text x="190" y="160" font-size="13" fill="#FFFFFF" text-anchor="middle" font-weight="bold" dominant-baseline="central">②</text>
  <line x1="200" y1="183" x2="210" y2="183" stroke="#FF9800" stroke-width="1" stroke-dasharray="4,3" />
  <circle cx="200" cy="183" r="3" fill="#FF9800" />
  <polygon points="210,183 202,186 202,180" fill="#FF9800" />
  <circle cx="205" cy="183" r="14" fill="#FF9800" />
  <text x="205" y="183" font-size="13" fill="#FFFFFF" text-anchor="middle" font-weight="bold" dominant-baseline="central">③</text>
  <line x1="322" y1="97" x2="554" y2="97" stroke="#E53935" stroke-width="1" stroke-dasharray="4,3" />
  <circle cx="322" cy="97" r="3" fill="#E53935" />
  <circle cx="570" cy="97" r="14" fill="#E53935" />
  <text x="570" y="97" font-size="13" fill="#FFFFFF" text-anchor="middle" font-weight="bold" dominant-baseline="central">①</text>
  <line x1="322" y1="137" x2="554" y2="137" stroke="#1976D2" stroke-width="1" stroke-dasharray="2,3" />
  <circle cx="322" cy="137" r="3" fill="#1976D2" />
  <circle cx="570" cy="137" r="14" fill="#1976D2" />
  <text x="570" y="137" font-size="13" fill="#FFFFFF" text-anchor="middle" font-weight="bold" dominant-baseline="central">②</text>
  <line x1="202" y1="183" x2="554" y2="183" stroke="#E53935" stroke-width="1" />
  <circle cx="202" cy="183" r="3" fill="#4CAF50" />
  <circle cx="570" cy="183" r="14" fill="#4CAF50" />
  <text x="570" y="183" font-size="13" fill="#FFFFFF" text-anchor="middle" font-weight="bold" dominant-baseline="central">③</text>
</svg>