<?xml version="1.0" encoding="UTF-8"?>
<svg xmlns="http://www.w3.org/2000/svg" width="580" height="380" viewBox="0 0 580 380">
  <defs>
    <filter id="windowShadow">
      <feDropShadow dx="2" dy="2" stdDeviation="4" flood-opacity="0.15" />
    </filter>
    <style>text { font-family: 'Segoe UI', 'Meiryo', sans-serif; }</style>
  </defs>
  <rect width="580" height="380" fill="#F5F0EB" />
  <rect x="40" y="40" width="500" height="300" fill="#FAF7F2" stroke="#8B7355" stroke-width="1" rx="4" filter="url(#windowShadow)" />
  <rect x="40" y="40" width="500" height="30" fill="#6B4226" stroke="none" stroke-width="0" rx="4" />
  <rect x="40" y="64" width="500" height="6" fill="#6B4226" stroke="none" stroke-width="1" />
  <text x="50" y="55" font-size="12" fill="#FFFFFF" text-anchor="start" font-weight="normal" dominant-baseline="central">カスタムテーマ画面</text>
  <line x1="518" y1="51" x2="526" y2="59" stroke="#FFFFFF" stroke-width="1" />
  <line x1="518" y1="59" x2="526" y2="51" stroke="#FFFFFF" stroke-width="1" />
  <rect x="493" y="51" width="8" height="8" fill="none" stroke="#FFFFFF" stroke-width="1" />
  <line x1="468" y1="55" x2="476" y2="55" stroke="#FFFFFF" stroke-width="1" />
  <text x="60" y="120" font-size="12" fill="#3E2723" text-anchor="start" font-weight="normal" dominant-baseline="central">ユーザー名</text>
  <rect x="160" y="106" width="200" height="24" fill="#FFFDF5" stroke="#A0866C" stroke-width="1" rx="2" />
  <text x="164" y="118" font-size="12" fill="#A0A0A0" text-anchor="start" font-weight="normal" dominant-baseline="central" font-style="italic">入力してください</text>
  <rect x="380" y="105" width="100" height="26" fill="#D2B48C" stroke="#8B7355" stroke-width="1" rx="3" />
  <text x="430" y="118" font-size="12" fill="#3E2723" text-anchor="middle" font-weight="normal" dominant-baseline="central">登録</text>
  <text x="60" y="170" font-size="12" fill="#3E2723" text-anchor="start" font-weight="normal" dominant-baseline="central">カスタムテーマでは一部の色だけを変更できます</text>
  <rect x="60" y="200" width="140" height="26" fill="#D2B48C" stroke="#8B7355" stroke-width="1" rx="3" />
  <text x="130" y="213" font-size="12" fill="#3E2723" text-anchor="middle" font-weight="normal" dominant-baseline="central">標準色ボタン</text>
  <rect x="220" y="200" width="140" height="26" fill="#4CAF50" stroke="#388E3C" stroke-width="1" rx="3" />
  <text x="290" y="213" font-size="12" fill="#FFFFFF" text-anchor="middle" font-weight="normal" dominant-baseline="central">個別色ボタン</text>
  <rect x="40" y="318" width="500" height="22" fill="#6B4226" stroke="none" stroke-width="1" />
  <text x="50" y="329" font-size="11" fill="#FFFFFF" text-anchor="start" font-weight="normal" dominant-baseline="central">準備完了</text>
  <line x1="104" y1="321" x2="104" y2="337" stroke="#FFFFFF" stroke-width="1" />
  <text x="114" y="329" font-size="11" fill="#FFFFFF" text-anchor="start" font-weight="normal" dominant-baseline="central">カスタムテーマ</text>
</svg>