<?xml version="1.0" encoding="UTF-8"?>
<svg xmlns="http://www.w3.org/2000/svg" width="440" height="280" viewBox="0 0 440 280">
  <defs>
    <filter id="windowShadow">
      <feDropShadow dx="2" dy="2" stdDeviation="4" flood-opacity="0.15" />
    </filter>
    <style>text { font-family: 'Segoe UI', 'Meiryo', sans-serif; }</style>
  </defs>
  <rect width="440" height="280" fill="#FFFFFF" />
  <rect x="10" y="10" width="420" height="260" fill="#F0F0F0" stroke="#D0D0D0" stroke-width="1" rx="2" />
  <text x="26" y="36" font-size="12" fill="#1E1E1E" text-anchor="start" font-weight="normal" dominant-baseline="central">氏名</text>
  <rect x="110" y="22" width="300" height="28" fill="#FFFFFF" stroke="#7A7A7A" stroke-width="1" rx="2" />
  <text x="114" y="36" font-size="12" fill="#A0A0A0" text-anchor="start" font-weight="normal" dominant-baseline="central" font-style="italic">例）山田 太郎</text>
  <text x="26" y="76" font-size="12" fill="#1E1E1E" text-anchor="start" font-weight="normal" dominant-baseline="central">メール</text>
  <rect x="110" y="62" width="300" height="28" fill="#FFFFFF" stroke="#7A7A7A" stroke-width="1" rx="2" />
  <text x="114" y="76" font-size="12" fill="#A0A0A0" text-anchor="start" font-weight="normal" dominant-baseline="central" font-style="italic">user@example.com</text>
  <text x="26" y="116" font-size="12" fill="#1E1E1E" text-anchor="start" font-weight="normal" dominant-baseline="central">種別</text>
  <rect x="110" y="102" width="200" height="28" fill="#FFFFFF" stroke="#7A7A7A" stroke-width="1" rx="2" />
  <text x="114" y="116" font-size="12" fill="#1E1E1E" text-anchor="start" font-weight="normal" dominant-baseline="central">選択してください</text>
  <rect x="290" y="102" width="20" height="28" fill="#E1E1E1" stroke="#7A7A7A" stroke-width="1" rx="2" />
  <polygon points="295,113 305,113 300,119" fill="#666666" />
  <rect x="110" y="149" width="14" height="14" fill="#FFFFFF" stroke="#666666" stroke-width="1" rx="2" />
  <polyline points="113,156 116,159 121,152" fill="none" stroke="#0078D4" stroke-width="2" />
  <text x="130" y="156" font-size="12" fill="#1E1E1E" text-anchor="start" font-weight="normal" dominant-baseline="central">通知を受け取る</text>
  <rect x="110" y="177" width="14" height="14" fill="#FFFFFF" stroke="#666666" stroke-width="1" rx="2" />
  <text x="130" y="184" font-size="12" fill="#1E1E1E" text-anchor="start" font-weight="normal" dominant-baseline="central">利用規約に同意</text>
  <rect x="220" y="220" width="90" height="32" fill="#E1E1E1" stroke="#ADADAD" stroke-width="1" rx="3" />
  <text x="265" y="236" font-size="12" fill="#1E1E1E" text-anchor="middle" font-weight="normal" dominant-baseline="central">保存</text>
  <rect x="320" y="220" width="90" height="32" fill="#E1E1E1" stroke="#ADADAD" stroke-width="1" rx="3" />
  <text x="365" y="236" font-size="12" fill="#1E1E1E" text-anchor="middle" font-weight="normal" dominant-baseline="central">キャンセル</text>
</svg>